<mxfile host="app.diagrams.net" modified="2024-02-21T16:46:52.723Z" agent="Mozilla/5.0 (Windows NT 10.0; Win64; x64) AppleWebKit/537.36 (KHTML, like Gecko) Chrome/120.0.0.0 YaBrowser/24.1.0.0 Safari/537.36" version="23.1.5" etag="DYvEsRdAn0-1cEvM0c7F" type="github">
  <diagram name="Страница — 1" id="uyyKY2Fgw8Dpfv1ZiXKh">
    <mxGraphModel>
      <root>
        <mxCell id="0" />
        <mxCell id="1" parent="0" />
      </root>
    </mxGraphModel>
  </diagram>
</mxfile>
